<svg width="458" height="463" xmlns="http://www.w3.org/2000/svg" xmlns:xlink="http://www.w3.org/1999/xlink" xml:space="preserve" overflow="hidden"><g transform="translate(-165 -944)"><g><path d="M166 1023.83C166 981.953 199.952 948 241.835 948L545.165 948C587.048 948 621 981.953 621 1023.83L621 1327.17C621 1369.05 587.048 1403 545.165 1403L241.835 1403C199.952 1403 166 1369.05 166 1327.17Z" fill="#FFDFDB" fill-rule="evenodd" fill-opacity="1"/><g><g><g><path d="M370.75 1164.13 370.75 1232.38" stroke="#FF0000" stroke-width="22.7499" stroke-linecap="round" stroke-linejoin="round" stroke-miterlimit="4" stroke-opacity="1" fill="none" fill-rule="nonzero"/><path d="M416.25 1164.13 416.25 1232.38" stroke="#FF0000" stroke-width="22.7499" stroke-linecap="round" stroke-linejoin="round" stroke-miterlimit="4" stroke-opacity="1" fill="none" fill-rule="nonzero"/><path d="M473.125 1107.25 473.125 1266.5C473.125 1279.06 462.94 1289.25 450.375 1289.25L336.625 1289.25C324.061 1289.25 313.875 1279.06 313.875 1266.5L313.875 1107.25" stroke="#FF0000" stroke-width="22.7499" stroke-linecap="round" stroke-linejoin="round" stroke-miterlimit="4" stroke-opacity="1" fill="none" fill-rule="nonzero"/><path d="M291.125 1107.25 495.875 1107.25" stroke="#FF0000" stroke-width="22.7499" stroke-linecap="round" stroke-linejoin="round" stroke-miterlimit="4" stroke-opacity="1" fill="none" fill-rule="nonzero"/><path d="M348 1107.25 348 1084.5C348 1071.94 358.186 1061.75 370.75 1061.75L416.25 1061.75C428.815 1061.75 439 1071.94 439 1084.5L439 1107.25" stroke="#FF0000" stroke-width="22.7499" stroke-linecap="round" stroke-linejoin="round" stroke-miterlimit="4" stroke-opacity="1" fill="none" fill-rule="nonzero"/></g></g></g></g></g></svg>