<svg width="459" height="458" xmlns="http://www.w3.org/2000/svg" xmlns:xlink="http://www.w3.org/1999/xlink" xml:space="preserve" overflow="hidden"><g transform="translate(-343 -1526)"><g><path d="M345 1602.67C345 1560.88 378.878 1527 420.668 1527L723.333 1527C765.123 1527 799.001 1560.88 799.001 1602.67L799.001 1906.33C799.001 1948.12 765.123 1982 723.333 1982L420.668 1982C378.878 1982 345 1948.12 345 1906.33Z" fill="#FFDFDB" fill-rule="evenodd" fill-opacity="1"/><g><g><g><path d="M113.75 125.125 113.75 193.375" stroke="#FF0000" stroke-width="22.7499" stroke-linecap="round" stroke-linejoin="round" stroke-miterlimit="4" stroke-opacity="1" fill="none" fill-rule="nonzero" transform="matrix(1 0 0 1 435 1618)"/><path d="M159.25 125.125 159.25 193.375" stroke="#FF0000" stroke-width="22.7499" stroke-linecap="round" stroke-linejoin="round" stroke-miterlimit="4" stroke-opacity="1" fill="none" fill-rule="nonzero" transform="matrix(1 0 0 1 435 1618)"/><path d="M216.125 68.25 216.125 227.5C216.125 240.065 205.94 250.25 193.375 250.25L79.625 250.25C67.0605 250.25 56.875 240.065 56.875 227.5L56.875 68.25" stroke="#FF0000" stroke-width="22.7499" stroke-linecap="round" stroke-linejoin="round" stroke-miterlimit="4" stroke-opacity="1" fill="none" fill-rule="nonzero" transform="matrix(1 0 0 1 435 1618)"/><path d="M34.125 68.25 238.875 68.25" stroke="#FF0000" stroke-width="22.7499" stroke-linecap="round" stroke-linejoin="round" stroke-miterlimit="4" stroke-opacity="1" fill="none" fill-rule="nonzero" transform="matrix(1 0 0 1 435 1618)"/><path d="M91 68.25 91 45.5C91 32.9355 101.185 22.75 113.75 22.75L159.25 22.75C171.815 22.75 182 32.9355 182 45.5L182 68.25" stroke="#FF0000" stroke-width="22.7499" stroke-linecap="round" stroke-linejoin="round" stroke-miterlimit="4" stroke-opacity="1" fill="none" fill-rule="nonzero" transform="matrix(1 0 0 1 435 1618)"/></g></g></g></g></g></svg>